<?xml version="1.0" encoding="utf-8"?>
<!-- Generator: Adobe Illustrator 18.0.0, SVG Export Plug-In . SVG Version: 6.00 Build 0)  -->
<!DOCTYPE svg PUBLIC "-//W3C//DTD SVG 1.1//EN" "http://www.w3.org/Graphics/SVG/1.1/DTD/svg11.dtd">
<svg version="1.1" id="Layer_2" xmlns="http://www.w3.org/2000/svg" xmlns:xlink="http://www.w3.org/1999/xlink" x="0px" y="0px"
	 viewBox="0 0 400 200" style="enable-background:new 0 0 400 200;" xml:space="preserve">
<style type="text/css">
	.st0{fill:#FFFFFF;}
	.st1{fill:#FFF200;}
</style>
<path class="st0" d="M63.3,173.3H99c0,0,60.7-127.7,65.1-136.6c9.4-18.6,26.5-17.8,26.5-17.8v-2H131v2.3c0,0,8.3,0,11.8,0
	c3.8,0,15.3,9.4,7.8,26.9c-9.8,22.7-42.3,94.7-42.3,94.7s-7.4-84.2-9.6-112.5c-0.5-6.5,4.5-9,11.2-9c2.5,0,8.3-0.3,8.3-0.3v-2H33.7
	v2.3c0,0,9.4-0.2,12,2.3C51,27,63.3,173.3,63.3,173.3z"/>
<path class="st0" d="M348.8,99.2c12.4-1.6,17.8-15.4,15-24.3c-3.2-10.3-15.4-13.5-25.6-8c-4.6,2.5-9.5,6.9-14.4,14.4
	c-6.4,10-12.7,19.6-12.7,19.6s-2-29.8-23-33.9c-28.1-5.5-70.1,65.1-96.8,57.4c-10.3-3-10-20.3-9.7-25.3c0.3-5,2.3-25.9,17.1-29.5
	c17.8-4.4,5.1,49,5.1,49C218,113.2,238,91.2,238,91.2s-9.3-24.9-38-24.2c-27.5,0.7-51.9,16.8-62.7,46c-10.7,29,1.7,60.8,37.8,64.2
	c36.2,3.4,58.2-24.6,64.8-50.6c4.5-17.7,0.8-25.4,0.8-25.4s18.6-21.8,28.3-13c7.5,6.8,16.2,49,16.2,49l-13.7,21.3
	c0,0-1.3-18-19-17.9c-14.5,0-24.5,18.9-15.9,29.6c10.4,12.9,27.8,6,35.4-5.6c7.7-11.6,14.3-21.4,14.3-21.4s6.7,30,21.8,32.9
	c24,4.5,47-24.2,47-24.2l-2-3.7c0,0-10.5,14.2-21.5,7.5c-13.2-8-19.3-50.6-19.3-50.6l12.7-20C325.2,85.2,332.8,101.2,348.8,99.2z
	 M186.2,171.5c-4.3,4.7-14.3,3.8-15.6-3.3c-2.5-13.5,7.5-55.5,7.5-55.5s1,8.7,8.3,14.6c5.8,4.7,14.5,2,14.5,2
	S195.5,161.5,186.2,171.5z"/>
</svg>
